<?xml version="1.0" encoding="utf-8"?>
<!-- Generator: Adobe Illustrator 17.1.0, SVG Export Plug-In . SVG Version: 6.00 Build 0)  -->
<!DOCTYPE svg PUBLIC "-//W3C//DTD SVG 1.1//EN" "http://www.w3.org/Graphics/SVG/1.1/DTD/svg11.dtd">
<svg version="1.1" xmlns="http://www.w3.org/2000/svg" xmlns:xlink="http://www.w3.org/1999/xlink" x="0px" y="0px"
	 viewBox="0 0 58.6 80.2" enable-background="new 0 0 58.6 80.2" xml:space="preserve">
<g id="Layer_2">
	<rect x="102.5" y="286" fill="none" width="380" height="139"/>
	<text transform="matrix(1 0 0 1 102.5491 329.4395)"><tspan x="0" y="0" fill="#DB1959" font-family="'CircularStd-Bold'" font-size="60" letter-spacing="-3">ig</tspan><tspan x="45.1" y="0" fill="#DB1959" font-family="'CircularStd-Bold'" font-size="60" letter-spacing="-2">g</tspan><tspan x="78.2" y="0" fill="#DB1959" font-family="'CircularStd-Bold'" font-size="60" letter-spacing="-1">y</tspan><tspan x="110.6" y="0" fill="#DB1959" font-family="'CircularStd-Bold'" font-size="60" letter-spacing="-3">P</tspan><tspan x="143.4" y="0" fill="#DB1959" font-family="'CircularStd-Bold'" font-size="60" letter-spacing="-4">O</tspan><tspan x="187" y="0" fill="#DB1959" font-family="'CircularStd-Bold'" font-size="60">P</tspan></text>
	<path fill="#DB1959" d="M99.5,310.5c-0.2-0.1-4-0.4-4.2-0.5c0-4.7-0.6-4.5-3.4-1.3c-1.4,0-2.5,0.5-2.5,1.6c0,0.6,0,1.7,0.1,3.1
		c-4.1,6.8-25.7,8-28.7,5.4c-3.2-2.8-10.6-17.5-10.6-17.5c0,7-0.7,11.4-3.4,14.7c-2.8,3.4-2.3,6.6,1.3,4.9c2.1-1,5.2,1.6,5.2,1.6
		c2,2-1.8,10.2-3,15.8c-0.9,4.4,0.8,13,4.5,13s5.8-2.8,6.8-12.5s9.5-9,9.5-9c5.3,0,7.8,2,9.2,6.8s2.2,5.1,4.8,5.5
		c5.2,0.8,7-5.2,7.5-11.5c0.2-2.1,0.8-4.4,1.5-6.6c0.1-0.2,2.7-7,5.6-5.2c2.9,1.7,3.2,0.4,3.8-0.4C104,317.5,102.4,312,99.5,310.5z"
		/>
	<g>
		<path fill="#DB1959" d="M92.5,323.2c-4.7,4-8.8,5.7-16.8,5.7c-14.3,0-25.5-10.5-25.5-27.7c0-17.2,11.7-30.3,26.1-30.3
			c14,0,20.8,11.7,23.4,19.9L87.8,294c-1.3-4.7-4.2-9.8-11.4-9.8c-6.1-0.1-14.4,4.4-14.4,17c0,10.8,5.5,15.3,14.5,15.3
			c7,0,9.6-3.6,10.2-7.3l-10.8,1v-10h24.5c0,0,0,5.7-1.6,11.8C97.8,316.1,95.8,320.5,92.5,323.2z"/>
	</g>
	<path d="M197.8,313.2"/>
	<g display="none">
		<g display="inline">
			<ellipse display="none" fill="#DB1959" cx="277.2" cy="154.3" rx="23.3" ry="22.7"/>
			
				<radialGradient id="SVGID_1_" cx="276.3406" cy="154.0124" r="22.4735" gradientTransform="matrix(1.0389 0 0 1.0111 -9.8832 -1.4598)" gradientUnits="userSpaceOnUse">
				<stop  offset="0" style="stop-color:#FFFFFF"/>
				<stop  offset="0.1791" style="stop-color:#FCF4F8"/>
				<stop  offset="0.4975" style="stop-color:#F2D5E7"/>
				<stop  offset="0.9157" style="stop-color:#E3A4CA"/>
				<stop  offset="0.9273" style="stop-color:#E3A3C9"/>
				<stop  offset="0.9386" style="stop-color:#E2A0C6"/>
				<stop  offset="0.9511" style="stop-color:#E095C0"/>
				<stop  offset="0.9641" style="stop-color:#DD85B7"/>
				<stop  offset="0.9774" style="stop-color:#D96DAA"/>
				<stop  offset="0.991" style="stop-color:#D54699"/>
				<stop  offset="0.9931" style="stop-color:#D43E96"/>
				<stop  offset="1" style="stop-color:#E3A3C9"/>
			</radialGradient>
			<ellipse display="none" fill="url(#SVGID_1_)" cx="277.2" cy="154.3" rx="23.3" ry="22.7"/>
			<g display="none">
				<path display="inline" fill="#FFFFFF" d="M276.9,143.7c5.1,0,9.8,1.8,13.5,4.9s6.1,7.3,6.9,12.1c1.1-2.5,1.7-5.2,1.7-8.1
					c0-2.9-0.6-5.7-1.7-8.2c-1.1-2.5-2.7-4.8-4.6-6.7c-3.9-3.8-9.3-6.2-15.3-6.2c-6,0-11.4,2.4-15.3,6.2c-2,1.9-3.5,4.2-4.6,6.7
					c-1.1,2.5-1.7,5.3-1.7,8.2c0,2.4,0.4,4.8,1.2,6.9c1-4.5,3.6-8.5,7.1-11.3C267.4,145.4,271.9,143.7,276.9,143.7z"/>
				<linearGradient id="SVGID_2_" gradientUnits="userSpaceOnUse" x1="277.2161" y1="159.49" x2="277.2161" y2="131.4702">
					<stop  offset="0" style="stop-color:#FFFFFF"/>
					<stop  offset="1" style="stop-color:#F9F3F8"/>
				</linearGradient>
				<path display="inline" fill="url(#SVGID_2_)" d="M262,137.7c3.9-3.8,9.3-6.2,15.3-6.2s11.3,2.3,15.3,6.2c2,1.9,3.5,4.2,4.6,6.7
					c1.1,2.5,1.7,5.2,1.7,8.1c0,1.2-0.1,2.4-0.3,3.5c-0.3,1.5-0.7,3-1.3,4.4c-0.8-4.8-3.3-8.9-6.9-12s-8.3-4.8-13.4-4.8
					c-4.9,0-9.4,1.7-12.9,4.5c-3.5,2.8-6.1,6.7-7.1,11.2c-0.3-0.9-0.6-1.9-0.8-2.9c-0.2-1.3-0.4-2.6-0.4-3.9c0-2.9,0.6-5.6,1.7-8
					C258.4,141.8,260,139.6,262,137.7z"/>
				<linearGradient id="SVGID_3_" gradientUnits="userSpaceOnUse" x1="277.2167" y1="159.2601" x2="277.2167" y2="131.5358">
					<stop  offset="0" style="stop-color:#FFFFFF"/>
					<stop  offset="1" style="stop-color:#F5EAF3"/>
				</linearGradient>
				<path display="inline" fill="url(#SVGID_3_)" d="M262,137.7c3.9-3.8,9.3-6.1,15.2-6.1s11.3,2.3,15.2,6.1c2,1.9,3.5,4.2,4.6,6.7
					c1.1,2.4,1.7,5.1,1.7,7.9c0,1.2-0.1,2.4-0.3,3.5c-0.3,1.5-0.7,3-1.2,4.3c-0.8-4.7-3.4-8.9-7-11.8s-8.3-4.8-13.3-4.8
					c-4.9,0-9.4,1.6-12.9,4.4c-3.5,2.8-6.1,6.6-7.2,11c-0.3-0.9-0.6-1.9-0.7-2.8c-0.2-1.3-0.4-2.6-0.3-3.9c0-2.8,0.6-5.5,1.7-7.9
					C258.5,141.9,260.1,139.6,262,137.7z"/>
				<linearGradient id="SVGID_4_" gradientUnits="userSpaceOnUse" x1="277.2173" y1="159.0303" x2="277.2173" y2="131.6015">
					<stop  offset="0" style="stop-color:#FFFFFF"/>
					<stop  offset="1" style="stop-color:#F1E1EE"/>
				</linearGradient>
				<path display="inline" fill="url(#SVGID_4_)" d="M262.1,137.8c3.9-3.8,9.3-6.1,15.2-6.1c5.9,0,11.3,2.3,15.2,6.1
					c2,1.9,3.5,4.2,4.6,6.7c1,2.4,1.6,5,1.7,7.8c0,1.2-0.1,2.3-0.3,3.4c-0.2,1.5-0.6,2.9-1.2,4.3c-0.9-4.7-3.4-8.8-7-11.7
					s-8.2-4.7-13.3-4.7c-4.8,0-9.3,1.6-12.8,4.3s-6.1,6.5-7.2,10.9c-0.3-0.9-0.5-1.8-0.7-2.8c-0.2-1.2-0.3-2.5-0.3-3.8
					c0-2.7,0.6-5.4,1.7-7.7C258.5,141.9,260.1,139.7,262.1,137.8z"/>
				<linearGradient id="SVGID_5_" gradientUnits="userSpaceOnUse" x1="277.2179" y1="158.8004" x2="277.2179" y2="131.6671">
					<stop  offset="0" style="stop-color:#FFFFFF"/>
					<stop  offset="1" style="stop-color:#EED9E9"/>
				</linearGradient>
				<path display="inline" fill="url(#SVGID_5_)" d="M262.1,137.8c3.9-3.8,9.2-6.1,15.1-6.1c5.9,0,11.2,2.3,15.1,6.1
					c1.9,1.9,3.5,4.1,4.6,6.6c1,2.4,1.6,4.9,1.6,7.6c0,1.1-0.1,2.3-0.2,3.4c-0.2,1.5-0.6,2.9-1.1,4.2c-0.9-4.6-3.5-8.7-7.1-11.6
					c-3.6-2.9-8.2-4.7-13.2-4.7c-4.8,0-9.2,1.6-12.8,4.3c-3.5,2.7-6.1,6.5-7.3,10.8c-0.3-0.9-0.5-1.8-0.7-2.7
					c-0.2-1.2-0.3-2.5-0.3-3.7c0-2.7,0.6-5.2,1.6-7.6C258.6,142,260.2,139.7,262.1,137.8z"/>
				<linearGradient id="SVGID_6_" gradientUnits="userSpaceOnUse" x1="277.2184" y1="158.5706" x2="277.2184" y2="131.7328">
					<stop  offset="0" style="stop-color:#FFFFFF"/>
					<stop  offset="1" style="stop-color:#EBD0E4"/>
				</linearGradient>
				<path display="inline" fill="url(#SVGID_6_)" d="M262.1,137.9c3.9-3.8,9.2-6.1,15.1-6.1c5.8,0,11.2,2.3,15.1,6.1
					c1.9,1.9,3.5,4.1,4.6,6.6c1,2.3,1.6,4.8,1.6,7.5c0,1.1-0.1,2.2-0.2,3.3c-0.2,1.4-0.6,2.8-1.1,4.1c-1-4.6-3.6-8.6-7.2-11.5
					c-3.6-2.9-8.2-4.6-13.2-4.6c-4.8,0-9.2,1.6-12.7,4.2s-6.1,6.4-7.3,10.7c-0.3-0.9-0.5-1.8-0.6-2.7c-0.2-1.2-0.3-2.4-0.3-3.7
					c0.1-2.6,0.6-5.1,1.6-7.4C258.6,142,260.2,139.8,262.1,137.9z"/>
				<linearGradient id="SVGID_7_" gradientUnits="userSpaceOnUse" x1="277.2189" y1="158.3407" x2="277.2189" y2="131.7984">
					<stop  offset="0" style="stop-color:#FFFFFF"/>
					<stop  offset="1" style="stop-color:#E7C8DF"/>
				</linearGradient>
				<path display="inline" fill="url(#SVGID_7_)" d="M262.2,137.9c3.9-3.8,9.2-6.1,15-6.1c5.8,0,11.1,2.3,15,6.1
					c1.9,1.9,3.5,4.1,4.6,6.6c1,2.3,1.6,4.8,1.6,7.3c0,1.1,0,2.2-0.2,3.2c-0.2,1.4-0.5,2.8-1,4.1c-1-4.5-3.6-8.5-7.2-11.4
					c-3.6-2.8-8.2-4.5-13.1-4.5c-4.7,0-9.1,1.6-12.6,4.2c-3.5,2.6-6.1,6.3-7.4,10.6c-0.3-0.9-0.5-1.7-0.6-2.6
					c-0.2-1.2-0.3-2.4-0.2-3.6c0.1-2.6,0.6-5,1.6-7.3C258.7,142,260.3,139.8,262.2,137.9z"/>
				<linearGradient id="SVGID_8_" gradientUnits="userSpaceOnUse" x1="277.2194" y1="158.1109" x2="277.2194" y2="131.8641">
					<stop  offset="0" style="stop-color:#FFFFFF"/>
					<stop  offset="1" style="stop-color:#E4BFDA"/>
				</linearGradient>
				<path display="inline" fill="url(#SVGID_8_)" d="M262.2,137.9c3.9-3.8,9.2-6,15-6c5.8,0,11.1,2.3,15,6c1.9,1.9,3.5,4.1,4.6,6.6
					c1,2.2,1.5,4.7,1.6,7.2c0,1.1,0,2.1-0.2,3.2c-0.2,1.4-0.5,2.7-1,4c-1.1-4.5-3.7-8.4-7.3-11.2c-3.6-2.8-8.1-4.5-13.1-4.5
					c-4.7,0-9.1,1.5-12.6,4.1c-3.5,2.6-6.2,6.2-7.4,10.4c-0.2-0.8-0.4-1.7-0.6-2.6c-0.2-1.2-0.2-2.3-0.2-3.5
					c0.1-2.5,0.6-4.9,1.6-7.1C258.7,142.1,260.3,139.8,262.2,137.9z"/>
				<linearGradient id="SVGID_9_" gradientUnits="userSpaceOnUse" x1="277.2198" y1="157.8811" x2="277.2198" y2="131.9297">
					<stop  offset="0" style="stop-color:#FFFFFF"/>
					<stop  offset="1" style="stop-color:#E1B7D5"/>
				</linearGradient>
				<path display="inline" fill="url(#SVGID_9_)" d="M262.3,138c3.9-3.8,9.2-6,14.9-6c5.8,0,11,2.2,14.9,6c1.9,1.9,3.5,4.1,4.5,6.6
					c0.9,2.2,1.5,4.6,1.6,7.1c0,1.1,0,2.1-0.1,3.1c-0.2,1.4-0.5,2.7-0.9,3.9c-1.1-4.5-3.7-8.4-7.3-11.1c-3.6-2.8-8.1-4.4-13-4.4
					c-4.7,0-9,1.5-12.5,4.1c-3.5,2.6-6.2,6.2-7.5,10.3c-0.2-0.8-0.4-1.7-0.5-2.5c-0.2-1.1-0.2-2.3-0.2-3.5c0.1-2.5,0.6-4.8,1.6-7
					C258.8,142.1,260.3,139.9,262.3,138z"/>
				<linearGradient id="SVGID_10_" gradientUnits="userSpaceOnUse" x1="277.2202" y1="157.6512" x2="277.2202" y2="131.9954">
					<stop  offset="0" style="stop-color:#FFFFFF"/>
					<stop  offset="1" style="stop-color:#DEAED0"/>
				</linearGradient>
				<path display="inline" fill="url(#SVGID_10_)" d="M262.3,138c3.9-3.8,9.1-6,14.9-6c5.7,0,11,2.2,14.9,6c1.9,1.9,3.5,4.1,4.5,6.6
					c0.9,2.2,1.5,4.5,1.6,6.9c0,1,0,2.1-0.1,3.1c-0.2,1.3-0.5,2.6-0.9,3.9c-1.1-4.4-3.8-8.3-7.4-11c-3.6-2.7-8.1-4.4-13-4.4
					c-4.6,0-9,1.5-12.5,4c-3.5,2.5-6.2,6.1-7.5,10.2c-0.2-0.8-0.4-1.6-0.5-2.5c-0.1-1.1-0.2-2.2-0.2-3.4c0.1-2.4,0.6-4.7,1.6-6.8
					C258.9,142.2,260.4,139.9,262.3,138z"/>
				<linearGradient id="SVGID_11_" gradientUnits="userSpaceOnUse" x1="277.2205" y1="157.4214" x2="277.2205" y2="132.0611">
					<stop  offset="0" style="stop-color:#FFFFFF"/>
					<stop  offset="1" style="stop-color:#DBA6CB"/>
				</linearGradient>
				<path display="inline" fill="url(#SVGID_11_)" d="M262.4,138.1c3.9-3.8,9.1-6,14.8-6c5.7,0,11,2.2,14.8,6
					c1.9,1.9,3.5,4.1,4.5,6.5c0.9,2.1,1.5,4.4,1.6,6.8c0,1,0,2-0.1,3c-0.1,1.3-0.4,2.6-0.8,3.8c-1.2-4.4-3.9-8.2-7.4-10.9
					c-3.6-2.7-8.1-4.3-12.9-4.3c-4.6,0-8.9,1.5-12.4,4c-3.5,2.5-6.2,6-7.6,10.1c-0.2-0.8-0.4-1.6-0.5-2.4c-0.1-1.1-0.2-2.2-0.1-3.3
					c0.1-2.3,0.6-4.6,1.5-6.7C258.9,142.2,260.4,140,262.4,138.1z"/>
				<linearGradient id="SVGID_12_" gradientUnits="userSpaceOnUse" x1="277.2207" y1="157.1915" x2="277.2207" y2="132.1267">
					<stop  offset="0" style="stop-color:#FFFFFF"/>
					<stop  offset="1" style="stop-color:#D99EC7"/>
				</linearGradient>
				<path display="inline" fill="url(#SVGID_12_)" d="M262.4,138.1c3.9-3.8,9.1-6,14.8-6c5.7,0,10.9,2.2,14.8,6
					c1.9,1.9,3.5,4.1,4.5,6.5c0.9,2.1,1.4,4.3,1.5,6.6c0,1,0,2-0.1,2.9c-0.1,1.3-0.4,2.5-0.8,3.7c-1.2-4.3-3.9-8.1-7.5-10.8
					c-3.6-2.7-8-4.3-12.8-4.3c-4.6,0-8.9,1.4-12.3,3.9c-3.5,2.5-6.2,5.9-7.6,10c-0.2-0.8-0.3-1.6-0.4-2.4c-0.1-1.1-0.2-2.1-0.1-3.2
					c0.1-2.3,0.6-4.5,1.5-6.5C259,142.2,260.5,140,262.4,138.1z"/>
				<linearGradient id="SVGID_13_" gradientUnits="userSpaceOnUse" x1="277.2209" y1="156.9617" x2="277.2209" y2="132.1924">
					<stop  offset="0" style="stop-color:#FFFFFF"/>
					<stop  offset="1" style="stop-color:#D696C2"/>
				</linearGradient>
				<path display="inline" fill="url(#SVGID_13_)" d="M262.5,138.2c3.9-3.8,9.1-5.9,14.7-5.9c5.7,0,10.9,2.2,14.7,5.9
					c1.9,1.9,3.5,4.1,4.5,6.5c0.9,2,1.4,4.2,1.5,6.5c0.1,1,0,1.9-0.1,2.9c-0.1,1.3-0.4,2.5-0.7,3.7c-1.3-4.3-4-8-7.5-10.6
					c-3.6-2.6-8-4.2-12.8-4.2c-4.6,0-8.8,1.4-12.3,3.8s-6.2,5.8-7.6,9.9c-0.2-0.8-0.3-1.5-0.4-2.3c-0.1-1-0.1-2.1-0.1-3.2
					c0.1-2.2,0.7-4.4,1.5-6.4C259,142.3,260.5,140.1,262.5,138.2z"/>
				<linearGradient id="SVGID_14_" gradientUnits="userSpaceOnUse" x1="277.2209" y1="156.7318" x2="277.2209" y2="132.258">
					<stop  offset="0" style="stop-color:#FFFFFF"/>
					<stop  offset="1" style="stop-color:#D38FBD"/>
				</linearGradient>
				<path display="inline" fill="url(#SVGID_14_)" d="M262.5,138.2c3.9-3.8,9.1-5.9,14.7-5.9c5.6,0,10.8,2.2,14.7,5.9
					c1.9,1.9,3.5,4.1,4.5,6.5c0.9,2,1.4,4.1,1.5,6.4c0.1,0.9,0,1.9,0,2.8c-0.1,1.2-0.3,2.4-0.7,3.6c-1.3-4.3-4-7.9-7.6-10.5
					c-3.6-2.6-8-4.2-12.7-4.2c-4.5,0-8.8,1.4-12.2,3.8c-3.5,2.4-6.2,5.8-7.7,9.7c-0.2-0.7-0.3-1.5-0.4-2.3c-0.1-1-0.1-2.1,0-3.1
					c0.1-2.2,0.7-4.3,1.5-6.2C259.1,142.3,260.6,140.1,262.5,138.2z"/>
				<linearGradient id="SVGID_15_" gradientUnits="userSpaceOnUse" x1="277.2209" y1="156.502" x2="277.2209" y2="132.3237">
					<stop  offset="0" style="stop-color:#FFFFFF"/>
					<stop  offset="1" style="stop-color:#D187B9"/>
				</linearGradient>
				<path display="inline" fill="url(#SVGID_15_)" d="M262.6,138.3c3.9-3.8,9-5.9,14.6-5.9c5.6,0,10.8,2.2,14.6,5.9
					c1.9,1.9,3.4,4.1,4.5,6.5c0.8,1.9,1.4,4,1.5,6.2c0.1,0.9,0.1,1.8,0,2.7c-0.1,1.2-0.3,2.4-0.6,3.5c-1.4-4.2-4.1-7.8-7.7-10.4
					c-3.6-2.6-8-4.1-12.7-4.1c-4.5,0-8.7,1.4-12.2,3.7c-3.5,2.4-6.2,5.7-7.7,9.6c-0.2-0.7-0.3-1.5-0.3-2.2c-0.1-1-0.1-2,0-3
					c0.2-2.1,0.7-4.2,1.5-6.1C259.1,142.3,260.6,140.1,262.6,138.3z"/>
				<linearGradient id="SVGID_16_" gradientUnits="userSpaceOnUse" x1="277.2208" y1="156.2721" x2="277.2208" y2="132.3893">
					<stop  offset="0" style="stop-color:#FFFFFF"/>
					<stop  offset="1" style="stop-color:#CF80B5"/>
				</linearGradient>
				<path display="inline" fill="url(#SVGID_16_)" d="M262.6,138.3c3.8-3.7,9-5.9,14.6-5.9c5.6,0,10.7,2.1,14.6,5.9
					c1.9,1.9,3.4,4.1,4.5,6.5c0.8,1.9,1.3,4,1.5,6.1c0.1,0.9,0.1,1.8,0,2.7c-0.1,1.2-0.3,2.3-0.6,3.5c-1.4-4.2-4.1-7.8-7.7-10.3
					c-3.6-2.5-7.9-4-12.6-4c-4.5,0-8.6,1.4-12.1,3.7s-6.2,5.6-7.8,9.5c-0.1-0.7-0.2-1.5-0.3-2.2c-0.1-1-0.1-2,0-3
					c0.2-2.1,0.7-4.1,1.5-5.9C259.2,142.4,260.7,140.2,262.6,138.3z"/>
				<linearGradient id="SVGID_17_" gradientUnits="userSpaceOnUse" x1="277.2205" y1="156.0423" x2="277.2205" y2="132.455">
					<stop  offset="0" style="stop-color:#FFFFFF"/>
					<stop  offset="1" style="stop-color:#CC78B1"/>
				</linearGradient>
				<path display="inline" fill="url(#SVGID_17_)" d="M262.7,138.4c3.8-3.7,9-5.9,14.5-5.9c5.5,0,10.7,2.1,14.5,5.9
					c1.9,1.9,3.4,4.1,4.5,6.5c0.8,1.9,1.3,3.9,1.5,5.9c0.1,0.9,0.1,1.7,0,2.6c-0.1,1.2-0.2,2.3-0.5,3.4c-1.4-4.1-4.2-7.7-7.8-10.2
					s-7.9-4-12.6-4c-4.4,0-8.6,1.3-12.1,3.6c-3.5,2.3-6.2,5.5-7.8,9.4c-0.1-0.7-0.2-1.4-0.3-2.1c-0.1-1-0.1-1.9,0-2.9
					c0.2-2,0.7-4,1.4-5.8C259.2,142.4,260.7,140.2,262.7,138.4z"/>
				<linearGradient id="SVGID_18_" gradientUnits="userSpaceOnUse" x1="277.22" y1="155.8125" x2="277.22" y2="132.5206">
					<stop  offset="0" style="stop-color:#FFFFFF"/>
					<stop  offset="1" style="stop-color:#CA70AD"/>
				</linearGradient>
				<path display="inline" fill="url(#SVGID_18_)" d="M262.7,138.4c3.8-3.7,9-5.8,14.5-5.8c5.5,0,10.7,2.1,14.5,5.8
					c1.9,1.9,3.4,4.1,4.4,6.4c0.8,1.8,1.3,3.8,1.5,5.8c0.1,0.9,0.1,1.7,0.1,2.6c-0.1,1.1-0.2,2.2-0.5,3.3c-1.5-4.1-4.3-7.6-7.8-10.1
					c-3.6-2.5-7.9-3.9-12.5-3.9c-4.4,0-8.5,1.3-12,3.6c-3.5,2.3-6.2,5.5-7.9,9.3c-0.1-0.7-0.2-1.4-0.2-2.1c0-0.9,0-1.9,0.1-2.8
					c0.2-2,0.7-3.8,1.4-5.6C259.3,142.5,260.8,140.3,262.7,138.4z"/>
				<linearGradient id="SVGID_19_" gradientUnits="userSpaceOnUse" x1="277.2193" y1="155.5826" x2="277.2193" y2="132.5863">
					<stop  offset="0" style="stop-color:#FFFFFF"/>
					<stop  offset="1" style="stop-color:#C868A8"/>
				</linearGradient>
				<path display="inline" fill="url(#SVGID_19_)" d="M262.8,138.5c3.8-3.7,9-5.8,14.5-5.8c5.5,0,10.6,2.1,14.5,5.8
					c1.9,1.9,3.4,4,4.4,6.4c0.8,1.8,1.3,3.7,1.4,5.7c0.1,0.8,0.1,1.7,0.1,2.5c0,1.1-0.2,2.2-0.4,3.3c-1.5-4-4.3-7.5-7.9-9.9
					s-7.9-3.9-12.5-3.9c-4.4,0-8.5,1.3-11.9,3.5c-3.5,2.2-6.2,5.4-7.9,9.1c-0.1-0.7-0.2-1.4-0.2-2c0-0.9,0-1.8,0.1-2.7
					c0.2-1.9,0.7-3.7,1.4-5.5C259.3,142.5,260.8,140.3,262.8,138.5z"/>
				<linearGradient id="SVGID_20_" gradientUnits="userSpaceOnUse" x1="277.2184" y1="155.3528" x2="277.2184" y2="132.6519">
					<stop  offset="0" style="stop-color:#FFFFFF"/>
					<stop  offset="1" style="stop-color:#C560A4"/>
				</linearGradient>
				<path display="inline" fill="url(#SVGID_20_)" d="M262.8,138.5c3.8-3.7,8.9-5.8,14.4-5.8c5.5,0,10.6,2.1,14.4,5.8
					c1.9,1.9,3.4,4,4.4,6.4c0.7,1.7,1.2,3.6,1.4,5.5c0.1,0.8,0.1,1.6,0.1,2.4c0,1.1-0.1,2.2-0.3,3.2c-1.6-4-4.4-7.4-7.9-9.8
					c-3.5-2.4-7.8-3.8-12.4-3.8c-4.3,0-8.4,1.3-11.9,3.5s-6.2,5.3-8,9c-0.1-0.7-0.1-1.3-0.2-2c0-0.9,0-1.8,0.1-2.7
					c0.2-1.8,0.7-3.6,1.4-5.3C259.4,142.5,260.9,140.4,262.8,138.5z"/>
				<linearGradient id="SVGID_21_" gradientUnits="userSpaceOnUse" x1="277.2171" y1="155.1229" x2="277.2171" y2="132.7176">
					<stop  offset="0" style="stop-color:#FFFFFF"/>
					<stop  offset="1" style="stop-color:#C357A0"/>
				</linearGradient>
				<path display="inline" fill="url(#SVGID_21_)" d="M262.9,138.5c3.8-3.7,8.9-5.8,14.4-5.8c5.4,0,10.5,2.1,14.4,5.8
					c1.9,1.9,3.4,4,4.4,6.4c0.7,1.7,1.2,3.5,1.4,5.4c0.1,0.8,0.1,1.6,0.1,2.4c0,1.1-0.1,2.1-0.3,3.1c-1.6-4-4.4-7.3-8-9.7
					c-3.5-2.4-7.8-3.8-12.3-3.8c-4.3,0-8.4,1.2-11.8,3.4c-3.4,2.2-6.2,5.2-8,8.9c-0.1-0.6-0.1-1.3-0.1-2c0-0.9,0-1.7,0.1-2.6
					c0.2-1.8,0.7-3.5,1.4-5.2C259.5,142.6,260.9,140.4,262.9,138.5z"/>
				<linearGradient id="SVGID_22_" gradientUnits="userSpaceOnUse" x1="277.2155" y1="154.8931" x2="277.2155" y2="132.7833">
					<stop  offset="0" style="stop-color:#FFFFFF"/>
					<stop  offset="1" style="stop-color:#C14E9C"/>
				</linearGradient>
				<path display="inline" fill="url(#SVGID_22_)" d="M297.2,155.6c-1.7-3.9-4.5-7.2-8-9.6c-3.5-2.3-7.8-3.7-12.3-3.7
					c-4.3,0-8.3,1.2-11.8,3.3c-3.4,2.1-6.3,5.2-8.1,8.8c-0.1-0.6-0.1-1.3-0.1-1.9c0-2.6,0.5-5.2,1.5-7.5c1-2.4,2.5-4.5,4.4-6.4
					c3.8-3.7,8.9-5.8,14.3-5.8c5.4,0,10.5,2,14.3,5.8c1.9,1.9,3.4,4,4.4,6.4c1,2.4,1.5,4.9,1.5,7.5
					C297.5,153.6,297.4,154.6,297.2,155.6z"/>
			</g>
			<linearGradient id="SVGID_23_" gradientUnits="userSpaceOnUse" x1="255.5671" y1="161.4863" x2="293.5436" y2="137.5064">
				<stop  offset="0" style="stop-color:#E9E6E7"/>
				<stop  offset="0.102" style="stop-color:#DDDADB"/>
				<stop  offset="0.2826" style="stop-color:#C3BEBF"/>
				<stop  offset="0.4152" style="stop-color:#ADA7A9"/>
				<stop  offset="0.5405" style="stop-color:#B0ABAD"/>
				<stop  offset="0.6783" style="stop-color:#BBB7B8"/>
				<stop  offset="0.8221" style="stop-color:#CECACB"/>
				<stop  offset="0.9691" style="stop-color:#EBE9EA"/>
				<stop  offset="1" style="stop-color:#F3F1F2"/>
			</linearGradient>
			<path fill="url(#SVGID_23_)" d="M254.8,154.3c0-12,10-21.7,22.3-21.7c12.2,0,22.1,9.6,22.3,21.4c0-0.1,0-0.2,0-0.2
				c0-12.1-10.1-21.9-22.5-21.9c-12.4,0-22.5,9.8-22.5,21.9c0,5.8,2.3,11.1,6.1,15C257,165,254.8,159.9,254.8,154.3z"/>
			<linearGradient id="SVGID_24_" gradientUnits="userSpaceOnUse" x1="278.0051" y1="178.4257" x2="300.3421" y2="161.9172">
				<stop  offset="0" style="stop-color:#D5D2D4"/>
				<stop  offset="1.374740e-03" style="stop-color:#D5D2D4"/>
				<stop  offset="0.1498" style="stop-color:#EAE8E8"/>
				<stop  offset="0.2924" style="stop-color:#F8F7F7"/>
				<stop  offset="0.4221" style="stop-color:#FFFFFF"/>
				<stop  offset="0.5823" style="stop-color:#E6E4E4"/>
				<stop  offset="0.8493" style="stop-color:#CBC7C8"/>
				<stop  offset="1" style="stop-color:#C1BDBE"/>
			</linearGradient>
			<path display="none" fill="url(#SVGID_24_)" d="M276.2,176.5c0.4,0,0.8,0,1.2,0c10.6,0,19.5-7.2,21.9-16.9
				C295.1,169.3,286.9,176,276.2,176.5z"/>
			
				<radialGradient id="SVGID_25_" cx="275.9715" cy="183.1251" r="26.1451" gradientTransform="matrix(1.0389 0 0 1.0111 -9.8832 -1.4598)" gradientUnits="userSpaceOnUse">
				<stop  offset="0" style="stop-color:#BB6597"/>
				<stop  offset="0.1298" style="stop-color:#B56293"/>
				<stop  offset="0.2791" style="stop-color:#A75E89"/>
				<stop  offset="0.438" style="stop-color:#925679"/>
				<stop  offset="0.6037" style="stop-color:#764B64"/>
				<stop  offset="0.7747" style="stop-color:#553C49"/>
				<stop  offset="0.9475" style="stop-color:#32292D"/>
				<stop  offset="1" style="stop-color:#262223"/>
			</radialGradient>
			<path display="none" fill="url(#SVGID_25_)" d="M277.3,162.4c-8.9,0-17.1-3.3-23.3-8.7c0,0.1,0,0.3,0,0.4
				c0,12.5,10.4,22.7,23.3,22.7c12.9,0,23.3-10.1,23.3-22.7c0-0.1,0-0.3,0-0.4C294.4,159.1,286.2,162.4,277.3,162.4z"/>
			<defs>
				<filter id="Adobe_OpacityMaskFilter" filterUnits="userSpaceOnUse" x="266.3" y="170.1" width="21.8" height="6.3">
					<feFlood  style="flood-color:white;flood-opacity:1" result="back"/>
					<feBlend  in="SourceGraphic" in2="back" mode="normal"/>
				</filter>
			</defs>
			<mask maskUnits="userSpaceOnUse" x="266.3" y="170.1" width="21.8" height="6.3" id="SVGID_26_">
				<g filter="url(#Adobe_OpacityMaskFilter)">
					<linearGradient id="SVGID_27_" gradientUnits="userSpaceOnUse" x1="276.9738" y1="176.1651" x2="276.8796" y2="169.6937">
						<stop  offset="0" style="stop-color:#FFFFFF"/>
						<stop  offset="0.1142" style="stop-color:#F2F1F1"/>
						<stop  offset="0.2456" style="stop-color:#DBD9D9"/>
						<stop  offset="0.3854" style="stop-color:#BBB8B8"/>
						<stop  offset="0.5313" style="stop-color:#939090"/>
						<stop  offset="0.6818" style="stop-color:#676463"/>
						<stop  offset="0.8362" style="stop-color:#3B3939"/>
						<stop  offset="0.9911" style="stop-color:#060606"/>
						<stop  offset="1" style="stop-color:#010101"/>
					</linearGradient>
					<ellipse fill="url(#SVGID_27_)" cx="276.9" cy="172.9" rx="10.9" ry="3.2"/>
				</g>
			</mask>
			
				<radialGradient id="SVGID_28_" cx="250.9432" cy="-176.3629" r="5.4502" gradientTransform="matrix(1.9918 0 0 0.5786 -222.7567 275.3059)" gradientUnits="userSpaceOnUse">
				<stop  offset="0" style="stop-color:#D68CBB"/>
				<stop  offset="8.399731e-02" style="stop-color:#DB9BC4"/>
				<stop  offset="0.2846" style="stop-color:#E6BCD8"/>
				<stop  offset="0.4809" style="stop-color:#EFD8E8"/>
				<stop  offset="0.6692" style="stop-color:#F6EBF4"/>
				<stop  offset="0.8461" style="stop-color:#FCF8FB"/>
				<stop  offset="1" style="stop-color:#FFFFFF"/>
			</radialGradient>
			
				<ellipse display="none" opacity="0.9" mask="url(#SVGID_26_)" fill="url(#SVGID_28_)" cx="277.2" cy="173.3" rx="10.9" ry="3.2"/>
			
				<radialGradient id="SVGID_29_" cx="276.2731" cy="-987.413" r="5.4509" gradientTransform="matrix(1.0389 0 0 0.2517 -9.8832 424.0561)" gradientUnits="userSpaceOnUse">
				<stop  offset="0" style="stop-color:#CA69A9"/>
				<stop  offset="4.349923e-02" style="stop-color:#CD74AE"/>
				<stop  offset="0.2181" style="stop-color:#D99AC4"/>
				<stop  offset="0.3906" style="stop-color:#E4BCD8"/>
				<stop  offset="0.5579" style="stop-color:#EED7E8"/>
				<stop  offset="0.7183" style="stop-color:#F6EBF4"/>
				<stop  offset="0.869" style="stop-color:#FCF8FB"/>
				<stop  offset="1" style="stop-color:#FFFFFF"/>
			</radialGradient>
			<ellipse display="none" fill="url(#SVGID_29_)" cx="277.2" cy="175.6" rx="5.7" ry="1.4"/>
			<linearGradient id="SVGID_30_" gradientUnits="userSpaceOnUse" x1="254.7455" y1="164.429" x2="284.6062" y2="164.429">
				<stop  offset="0" style="stop-color:#010101"/>
				<stop  offset="0.1003" style="stop-color:#0D0D0D"/>
				<stop  offset="0.2787" style="stop-color:#222323"/>
				<stop  offset="0.5145" style="stop-color:#3D3D3D"/>
				<stop  offset="0.7953" style="stop-color:#646162"/>
				<stop  offset="1" style="stop-color:#858183"/>
			</linearGradient>
			<path display="none" fill="url(#SVGID_30_)" d="M254.7,160.5c0.5,1.6,1.1,3.2,2,4.7c4.1,2.1,8.7,3.3,13.5,3.3
				c5.2,0,10-1.3,14.4-3.7c-3.3,1-6.7,1.5-10.3,1.5C267.1,166.2,260.4,164.1,254.7,160.5z"/>
			<linearGradient id="SVGID_31_" gradientUnits="userSpaceOnUse" x1="285.9473" y1="168.057" x2="299.9601" y2="162.1403">
				<stop  offset="0" style="stop-color:#97576D"/>
				<stop  offset="0.1307" style="stop-color:#8C5467"/>
				<stop  offset="0.3721" style="stop-color:#704A56"/>
				<stop  offset="0.6947" style="stop-color:#48393C"/>
				<stop  offset="1" style="stop-color:#21231F"/>
			</linearGradient>
			<path display="none" fill="url(#SVGID_31_)" d="M299.9,159.6c-3,5.3-9.2,7.8-15.7,8.1c2,0.2,9.8,1.7,14-3.3
				C298.9,162.8,299.5,161.3,299.9,159.6z"/>
			<linearGradient id="SVGID_32_" gradientUnits="userSpaceOnUse" x1="260.1217" y1="155.2857" x2="272.3702" y2="131.6756">
				<stop  offset="0" style="stop-color:#111111"/>
				<stop  offset="7.454162e-02" style="stop-color:#1A1819"/>
				<stop  offset="0.2071" style="stop-color:#2F2629"/>
				<stop  offset="0.381" style="stop-color:#4D383F"/>
				<stop  offset="0.526" style="stop-color:#6C4754"/>
				<stop  offset="0.5963" style="stop-color:#694652"/>
				<stop  offset="0.6736" style="stop-color:#60414C"/>
				<stop  offset="0.7544" style="stop-color:#513A42"/>
				<stop  offset="0.8375" style="stop-color:#3E2F34"/>
				<stop  offset="0.9215" style="stop-color:#261F22"/>
				<stop  offset="1" style="stop-color:#010101"/>
			</linearGradient>
			<path fill="url(#SVGID_32_)" d="M262.2,154.3c-0.1-0.6-0.1-1.2-0.1-1.8c0-8.5,6.1-15.7,14.6-18.4c-0.1,0-0.3,0-0.4,0
				c-9.6,0-17.5,7.6-17.5,17c0,1.3,0.1,2.5,0.4,3.6C260.2,154.5,261.1,154.4,262.2,154.3z"/>
			<defs>
				<filter id="Adobe_OpacityMaskFilter_1_" filterUnits="userSpaceOnUse" x="259.7" y="131.7" width="35" height="22">
					<feFlood  style="flood-color:white;flood-opacity:1" result="back"/>
					<feBlend  in="SourceGraphic" in2="back" mode="normal"/>
				</filter>
			</defs>
			<mask maskUnits="userSpaceOnUse" x="259.7" y="131.7" width="35" height="22" id="SVGID_33_">
				<g filter="url(#Adobe_OpacityMaskFilter_1_)">
					<linearGradient id="SVGID_34_" gradientUnits="userSpaceOnUse" x1="276.8332" y1="154.9866" x2="276.8332" y2="133.1452">
						<stop  offset="0" style="stop-color:#4B4B4B"/>
						<stop  offset="0.3421" style="stop-color:#8B8B8B"/>
						<stop  offset="0.6435" style="stop-color:#BCBCBC"/>
						<stop  offset="0.8717" style="stop-color:#DBDBDB"/>
						<stop  offset="1" style="stop-color:#E6E6E6"/>
					</linearGradient>
					<ellipse fill="url(#SVGID_34_)" cx="276.8" cy="144" rx="18.2" ry="11.5"/>
				</g>
			</mask>
			
				<radialGradient id="SVGID_35_" cx="276.3406" cy="299.5302" r="16.8498" gradientTransform="matrix(1.0389 0 0 0.6536 -9.8832 -53.0159)" gradientUnits="userSpaceOnUse">
				<stop  offset="0" style="stop-color:#FEF1F7"/>
				<stop  offset="9.440493e-02" style="stop-color:#E5DBDF"/>
				<stop  offset="0.2625" style="stop-color:#BAB1B4"/>
				<stop  offset="0.4845" style="stop-color:#80797A"/>
				<stop  offset="0.7489" style="stop-color:#423E3E"/>
				<stop  offset="1" style="stop-color:#010101"/>
			</radialGradient>
			<ellipse display="none" mask="url(#SVGID_33_)" fill="url(#SVGID_35_)" cx="277.2" cy="142.8" rx="17.5" ry="11"/>
			<defs>
				<filter id="Adobe_OpacityMaskFilter_2_" filterUnits="userSpaceOnUse" x="257.4" y="132.3" width="39.7" height="28.6">
					<feFlood  style="flood-color:white;flood-opacity:1" result="back"/>
					<feBlend  in="SourceGraphic" in2="back" mode="normal"/>
				</filter>
			</defs>
			<mask maskUnits="userSpaceOnUse" x="257.4" y="132.3" width="39.7" height="28.6" id="SVGID_36_">
				<g filter="url(#Adobe_OpacityMaskFilter_2_)">
					<linearGradient id="SVGID_37_" gradientUnits="userSpaceOnUse" x1="276.782" y1="162.4825" x2="276.782" y2="134.098">
						<stop  offset="0" style="stop-color:#4B4B4B"/>
						<stop  offset="0.3421" style="stop-color:#8B8B8B"/>
						<stop  offset="0.6435" style="stop-color:#BCBCBC"/>
						<stop  offset="0.8717" style="stop-color:#DBDBDB"/>
						<stop  offset="1" style="stop-color:#E6E6E6"/>
					</linearGradient>
					<ellipse fill="url(#SVGID_37_)" cx="276.8" cy="148.2" rx="20.7" ry="14.9"/>
				</g>
			</mask>
			
				<radialGradient id="SVGID_38_" cx="271.4455" cy="335.2914" r="17.2203" gradientTransform="matrix(1.1522 0 0 0.8311 -35.5367 -132.0893)" gradientUnits="userSpaceOnUse">
				<stop  offset="0" style="stop-color:#F6CDE0"/>
				<stop  offset="0.2622" style="stop-color:#F0C8DA"/>
				<stop  offset="0.4039" style="stop-color:#E2BDCD"/>
				<stop  offset="0.5168" style="stop-color:#CFADBC"/>
				<stop  offset="0.6145" style="stop-color:#B698A5"/>
				<stop  offset="0.7025" style="stop-color:#99808A"/>
				<stop  offset="0.7833" style="stop-color:#77646C"/>
				<stop  offset="0.8589" style="stop-color:#55484D"/>
				<stop  offset="0.9294" style="stop-color:#332C2E"/>
				<stop  offset="0.995" style="stop-color:#060606"/>
				<stop  offset="1" style="stop-color:#010101"/>
			</radialGradient>
			<ellipse display="none" mask="url(#SVGID_36_)" fill="url(#SVGID_38_)" cx="277.2" cy="146.6" rx="19.8" ry="14.3"/>
			<defs>
				<filter id="Adobe_OpacityMaskFilter_3_" filterUnits="userSpaceOnUse" x="265.5" y="132" width="23.3" height="11.4">
					<feFlood  style="flood-color:white;flood-opacity:1" result="back"/>
					<feBlend  in="SourceGraphic" in2="back" mode="normal"/>
				</filter>
			</defs>
			<mask maskUnits="userSpaceOnUse" x="265.5" y="132" width="23.3" height="11.4" id="SVGID_39_">
				<g filter="url(#Adobe_OpacityMaskFilter_3_)">
					<linearGradient id="SVGID_40_" gradientUnits="userSpaceOnUse" x1="276.9609" y1="143.2512" x2="276.9609" y2="131.9542">
						<stop  offset="0" style="stop-color:#4B4B4B"/>
						<stop  offset="9.513474e-02" style="stop-color:#606060"/>
						<stop  offset="0.4149" style="stop-color:#A4A4A4"/>
						<stop  offset="0.683" style="stop-color:#D5D5D5"/>
						<stop  offset="0.886" style="stop-color:#F4F4F4"/>
						<stop  offset="1" style="stop-color:#FFFFFF"/>
					</linearGradient>
					<ellipse fill="url(#SVGID_40_)" cx="277" cy="137.6" rx="12.2" ry="5.9"/>
				</g>
			</mask>
			
				<radialGradient id="SVGID_41_" cx="276.3406" cy="417.4792" r="11.2311" gradientTransform="matrix(1.0389 0 0 0.5072 -9.8832 -74.0707)" gradientUnits="userSpaceOnUse">
				<stop  offset="0" style="stop-color:#EFBDD7"/>
				<stop  offset="0.1124" style="stop-color:#E6B5CD"/>
				<stop  offset="0.2438" style="stop-color:#D2A6BB"/>
				<stop  offset="0.3848" style="stop-color:#B48FA0"/>
				<stop  offset="0.5325" style="stop-color:#8F727F"/>
				<stop  offset="0.6855" style="stop-color:#64525A"/>
				<stop  offset="0.8427" style="stop-color:#393134"/>
				<stop  offset="1" style="stop-color:#010101"/>
			</radialGradient>
			<ellipse mask="url(#SVGID_39_)" fill="url(#SVGID_41_)" cx="277.2" cy="137.7" rx="11.7" ry="5.7"/>
			
				<radialGradient id="SVGID_42_" cx="149.6986" cy="429.0332" r="3.6481" gradientTransform="matrix(0.8348 -0.6019 0.3293 0.4326 -0.6401 43.534)" gradientUnits="userSpaceOnUse">
				<stop  offset="0.7751" style="stop-color:#FEF1F7"/>
				<stop  offset="0.8182" style="stop-color:#F5EAEE"/>
				<stop  offset="0.8493" style="stop-color:#E4DADE"/>
				<stop  offset="0.8767" style="stop-color:#CDC3C7"/>
				<stop  offset="0.9018" style="stop-color:#B0A7A9"/>
				<stop  offset="0.9256" style="stop-color:#8D8587"/>
				<stop  offset="0.9482" style="stop-color:#686263"/>
				<stop  offset="0.97" style="stop-color:#433F40"/>
				<stop  offset="0.9905" style="stop-color:#1D1C1C"/>
				<stop  offset="1" style="stop-color:#010101"/>
			</radialGradient>
			<path fill="url(#SVGID_42_)" d="M268.7,136.8c0.7,0.9-0.2,2.6-1.8,3.8c-1.7,1.2-3.6,1.5-4.2,0.6c-0.7-0.9,0.2-2.6,1.8-3.8
				C266.1,136.2,268,135.9,268.7,136.8z"/>
			
				<radialGradient id="SVGID_43_" cx="275.8401" cy="154.0122" r="13.6237" gradientTransform="matrix(1.0389 0 0 1.0111 -9.8832 -1.4598)" gradientUnits="userSpaceOnUse">
				<stop  offset="0" style="stop-color:#69144F"/>
				<stop  offset="0.1307" style="stop-color:#61174B"/>
				<stop  offset="0.363" style="stop-color:#4E1D3E"/>
				<stop  offset="0.6701" style="stop-color:#311A2A"/>
				<stop  offset="1" style="stop-color:#010101"/>
			</radialGradient>
			<ellipse display="none" fill="url(#SVGID_43_)" cx="276.7" cy="154.3" rx="14.2" ry="13.8"/>
			
				<radialGradient id="SVGID_44_" cx="249.6749" cy="-205.0718" r="2.1128" gradientTransform="matrix(0.3691 -0.3649 0.7404 0.7093 349.8903 375.8148)" gradientUnits="userSpaceOnUse">
				<stop  offset="0.5017" style="stop-color:#FFFFFF"/>
				<stop  offset="0.6876" style="stop-color:#FDFDFD"/>
				<stop  offset="0.7545" style="stop-color:#F6F6F6"/>
				<stop  offset="0.8022" style="stop-color:#EBEBEB"/>
				<stop  offset="0.8408" style="stop-color:#DADADA"/>
				<stop  offset="0.8739" style="stop-color:#C4C4C4"/>
				<stop  offset="0.9031" style="stop-color:#A8A8A8"/>
				<stop  offset="0.9296" style="stop-color:#888888"/>
				<stop  offset="0.954" style="stop-color:#626262"/>
				<stop  offset="0.9766" style="stop-color:#373737"/>
				<stop  offset="0.9967" style="stop-color:#090909"/>
				<stop  offset="1" style="stop-color:#010101"/>
			</radialGradient>
			<path display="none" fill="url(#SVGID_44_)" d="M291,138.5c0.9,0.8,1.2,1.8,0.8,2.3c-0.4,0.4-1.5,0.1-2.3-0.7
				c-0.9-0.8-1.2-1.8-0.8-2.3C289.1,137.3,290.1,137.7,291,138.5z"/>
			
				<radialGradient id="SVGID_45_" cx="331.7114" cy="-208.389" r="0.8908" gradientTransform="matrix(0.3062 -0.3027 1.1877 1.1377 407.5325 507.9822)" gradientUnits="userSpaceOnUse">
				<stop  offset="0" style="stop-color:#CD65A6"/>
				<stop  offset="0.1476" style="stop-color:#C763A1"/>
				<stop  offset="0.2816" style="stop-color:#BB5F98"/>
				<stop  offset="0.4103" style="stop-color:#A9598A"/>
				<stop  offset="0.5359" style="stop-color:#905077"/>
				<stop  offset="0.6592" style="stop-color:#724460"/>
				<stop  offset="0.7807" style="stop-color:#513546"/>
				<stop  offset="0.8985" style="stop-color:#2E2129"/>
				<stop  offset="1" style="stop-color:#010101"/>
			</radialGradient>
			<path display="none" fill="url(#SVGID_45_)" d="M261.9,170.2c0.6,0.6,0.9,1.1,0.8,1.3c-0.2,0.1-0.7-0.2-1.3-0.7
				c-0.6-0.6-0.9-1.1-0.8-1.3C260.7,169.3,261.3,169.7,261.9,170.2z"/>
			<g display="none">
				
					<radialGradient id="SVGID_46_" cx="400.3543" cy="-30.2488" r="2.4333" gradientTransform="matrix(0.4323 0.3813 -0.6977 0.7492 94.6504 33.8291)" gradientUnits="userSpaceOnUse">
					<stop  offset="0" style="stop-color:#6F4761"/>
					<stop  offset="0.1491" style="stop-color:#6C465F"/>
					<stop  offset="0.3017" style="stop-color:#654359"/>
					<stop  offset="0.4561" style="stop-color:#583D4F"/>
					<stop  offset="0.6117" style="stop-color:#483441"/>
					<stop  offset="0.7683" style="stop-color:#332830"/>
					<stop  offset="0.9235" style="stop-color:#181517"/>
					<stop  offset="1" style="stop-color:#010101"/>
				</radialGradient>
				<path display="inline" fill="url(#SVGID_46_)" d="M289.9,164.7c-0.9,1-2.2,1.4-2.7,0.9c-0.6-0.5-0.3-1.7,0.6-2.8
					c0.9-1,2.2-1.4,2.7-0.9C291.1,162.5,290.8,163.7,289.9,164.7z"/>
				
					<radialGradient id="SVGID_47_" cx="399.879" cy="-30.0072" r="1.2923" gradientTransform="matrix(0.4323 0.3813 -0.6977 0.7492 94.6504 33.8291)" gradientUnits="userSpaceOnUse">
					<stop  offset="0" style="stop-color:#A65E8C"/>
					<stop  offset="9.326348e-02" style="stop-color:#9E5B85"/>
					<stop  offset="0.2534" style="stop-color:#895375"/>
					<stop  offset="0.4611" style="stop-color:#68445B"/>
					<stop  offset="0.7082" style="stop-color:#3F2F39"/>
					<stop  offset="0.986" style="stop-color:#060506"/>
					<stop  offset="1" style="stop-color:#010101"/>
				</radialGradient>
				<path display="inline" fill="url(#SVGID_47_)" d="M289,164.3c-0.5,0.5-1.2,0.7-1.5,0.5c-0.3-0.3-0.2-0.9,0.3-1.5
					c0.5-0.5,1.2-0.7,1.5-0.5C289.7,163.1,289.5,163.8,289,164.3z"/>
			</g>
			
				<radialGradient id="SVGID_48_" cx="2191.604" cy="-54.6986" r="1.9184" gradientTransform="matrix(0.2651 9.322382e-02 -0.353 0.9509 -344.5618 -5.3329)" gradientUnits="userSpaceOnUse">
				<stop  offset="0" style="stop-color:#D86BA9"/>
				<stop  offset="9.264468e-02" style="stop-color:#CA659D"/>
				<stop  offset="0.2517" style="stop-color:#AC5B88"/>
				<stop  offset="0.458" style="stop-color:#804A68"/>
				<stop  offset="0.7035" style="stop-color:#4B323F"/>
				<stop  offset="0.9795" style="stop-color:#090708"/>
				<stop  offset="1" style="stop-color:#010101"/>
			</radialGradient>
			<path display="none" fill="url(#SVGID_48_)" d="M256.3,147.1c-0.4,1-0.9,1.7-1.2,1.6c-0.3-0.1-0.2-1,0.2-2c0.4-1,0.9-1.7,1.2-1.6
				C256.8,145.2,256.7,146.1,256.3,147.1z"/>
			
				<radialGradient id="SVGID_49_" cx="2192.0925" cy="-55.1467" r="1.2667" gradientTransform="matrix(0.2651 9.322382e-02 -0.353 0.9509 -344.5618 -5.3329)" gradientUnits="userSpaceOnUse">
				<stop  offset="0" style="stop-color:#D86BA9"/>
				<stop  offset="9.264468e-02" style="stop-color:#CA659D"/>
				<stop  offset="0.2517" style="stop-color:#AC5B88"/>
				<stop  offset="0.458" style="stop-color:#804A68"/>
				<stop  offset="0.7035" style="stop-color:#4B323F"/>
				<stop  offset="0.9795" style="stop-color:#090708"/>
				<stop  offset="1" style="stop-color:#010101"/>
			</radialGradient>
			<path display="none" fill="url(#SVGID_49_)" d="M256.4,146.7c-0.2,0.7-0.6,1.2-0.8,1.1c-0.2-0.1-0.1-0.7,0.1-1.3
				c0.2-0.7,0.6-1.2,0.8-1.1C256.7,145.4,256.7,146,256.4,146.7z"/>
			
				<radialGradient id="SVGID_50_" cx="1786.073" cy="-221.0583" r="1.2665" gradientTransform="matrix(0.2915 0.3399 -0.9982 0.8108 -478.1217 -290.8017)" gradientUnits="userSpaceOnUse">
				<stop  offset="0" style="stop-color:#D86BA9"/>
				<stop  offset="9.264468e-02" style="stop-color:#CA659D"/>
				<stop  offset="0.2517" style="stop-color:#AC5B88"/>
				<stop  offset="0.458" style="stop-color:#804A68"/>
				<stop  offset="0.7035" style="stop-color:#4B323F"/>
				<stop  offset="0.9795" style="stop-color:#090708"/>
				<stop  offset="1" style="stop-color:#010101"/>
			</radialGradient>
			<path display="none" fill="url(#SVGID_50_)" d="M263.6,137.5c-0.7,0.6-1.4,0.8-1.6,0.6c-0.2-0.2,0.2-0.9,0.9-1.5
				c0.7-0.6,1.4-0.8,1.6-0.6C264.7,136.3,264.3,137,263.6,137.5z"/>
			
				<radialGradient id="SVGID_51_" cx="1786.0688" cy="-221.5038" r="1.2668" gradientTransform="matrix(0.2915 0.3399 -0.9982 0.8108 -478.1217 -290.8017)" gradientUnits="userSpaceOnUse">
				<stop  offset="0" style="stop-color:#D86BA9"/>
				<stop  offset="9.264468e-02" style="stop-color:#CA659D"/>
				<stop  offset="0.2517" style="stop-color:#AC5B88"/>
				<stop  offset="0.458" style="stop-color:#804A68"/>
				<stop  offset="0.7035" style="stop-color:#4B323F"/>
				<stop  offset="0.9795" style="stop-color:#090708"/>
				<stop  offset="1" style="stop-color:#010101"/>
			</radialGradient>
			<path display="none" fill="url(#SVGID_51_)" d="M264,137.2c-0.7,0.6-1.4,0.8-1.6,0.6c-0.2-0.2,0.2-0.9,0.9-1.5
				c0.7-0.6,1.4-0.8,1.6-0.6C265.1,136,264.7,136.6,264,137.2z"/>
			
				<radialGradient id="SVGID_52_" cx="-133.4256" cy="21.6209" r="1.9826" gradientTransform="matrix(0.2035 0.2442 -0.8068 0.637 336.0464 189.8044)" gradientUnits="userSpaceOnUse">
				<stop  offset="0" style="stop-color:#E9A7CA"/>
				<stop  offset="5.432975e-02" style="stop-color:#D298B4"/>
				<stop  offset="0.3024" style="stop-color:#876875"/>
				<stop  offset="0.5299" style="stop-color:#57484C"/>
				<stop  offset="0.7292" style="stop-color:#393433"/>
				<stop  offset="0.8926" style="stop-color:#272825"/>
				<stop  offset="1" style="stop-color:#21231F"/>
			</radialGradient>
			<path display="none" fill="url(#SVGID_52_)" d="M291.8,171.5c-0.9,0.7-1.8,1-2,0.8c-0.2-0.3,0.3-1,1.2-1.7c0.9-0.7,1.8-1,2-0.8
				C293.3,170,292.7,170.8,291.8,171.5z"/>
			
				<radialGradient id="SVGID_53_" cx="-494.4716" cy="22.8509" r="1.9828" gradientTransform="matrix(0.1524 0.1827 -0.8066 0.6372 384.9204 247.0184)" gradientUnits="userSpaceOnUse">
				<stop  offset="0" style="stop-color:#E9A7CA"/>
				<stop  offset="5.432975e-02" style="stop-color:#D298B4"/>
				<stop  offset="0.3024" style="stop-color:#876875"/>
				<stop  offset="0.5299" style="stop-color:#57484C"/>
				<stop  offset="0.7292" style="stop-color:#393433"/>
				<stop  offset="0.8926" style="stop-color:#272825"/>
				<stop  offset="1" style="stop-color:#21231F"/>
			</radialGradient>
			<path display="none" fill="url(#SVGID_53_)" d="M291.4,171.6c-0.9,0.7-1.7,1.1-1.9,0.9c-0.2-0.2,0.4-0.9,1.3-1.6
				c0.9-0.7,1.7-1.1,1.9-0.9C292.9,170.2,292.3,170.9,291.4,171.6z"/>
			
				<radialGradient id="SVGID_54_" cx="-755.6572" cy="23.8313" r="1.9829" gradientTransform="matrix(0.1344 0.1613 -0.8069 0.6369 410.8965 278.6944)" gradientUnits="userSpaceOnUse">
				<stop  offset="0" style="stop-color:#E9A7CA"/>
				<stop  offset="5.432975e-02" style="stop-color:#D298B4"/>
				<stop  offset="0.3024" style="stop-color:#876875"/>
				<stop  offset="0.5299" style="stop-color:#57484C"/>
				<stop  offset="0.7292" style="stop-color:#393433"/>
				<stop  offset="0.8926" style="stop-color:#272825"/>
				<stop  offset="1" style="stop-color:#21231F"/>
			</radialGradient>
			<path display="none" fill="url(#SVGID_54_)" d="M290.3,172.3c-0.9,0.7-1.7,1.1-1.9,0.9c-0.1-0.2,0.4-0.9,1.3-1.6
				c0.9-0.7,1.7-1.1,1.9-0.9C291.8,170.9,291.2,171.6,290.3,172.3z"/>
			<g display="none" opacity="0.7">
				<path display="inline" fill="#FFFFFF" d="M277.3,172.8c-4.8,1.2-10.6,0.8-13.2-0.2c4,2.8,9,4.4,14.4,4.2
					c4.4-0.2,8.4-1.6,11.7-3.9C285.6,173.7,281.1,174,277.3,172.8z"/>
				<linearGradient id="SVGID_55_" gradientUnits="userSpaceOnUse" x1="277.1385" y1="176.6918" x2="277.1385" y2="172.7918">
					<stop  offset="0" style="stop-color:#F5EBF4"/>
					<stop  offset="1" style="stop-color:#FFFFFF"/>
				</linearGradient>
				<path display="inline" fill="url(#SVGID_55_)" d="M277.3,173c-4.8,1.2-10.4,0.7-13-0.3c4,2.8,8.9,4.3,14.2,4
					c4.3-0.2,8.3-1.6,11.5-3.8C285.5,173.8,281.1,174.1,277.3,173z"/>
				<linearGradient id="SVGID_56_" gradientUnits="userSpaceOnUse" x1="277.1331" y1="176.6585" x2="277.1331" y2="172.8577">
					<stop  offset="0" style="stop-color:#EFDAEA"/>
					<stop  offset="1" style="stop-color:#FFFFFF"/>
				</linearGradient>
				<path display="inline" fill="url(#SVGID_56_)" d="M277.3,173.1c-4.7,1.2-10.3,0.7-12.8-0.3c3.9,2.8,8.8,4.2,14,3.9
					c4.2-0.2,8.1-1.5,11.4-3.7C285.4,173.8,281,174.2,277.3,173.1z"/>
				<linearGradient id="SVGID_57_" gradientUnits="userSpaceOnUse" x1="277.1276" y1="176.6252" x2="277.1276" y2="172.9236">
					<stop  offset="0" style="stop-color:#E8CAE1"/>
					<stop  offset="1" style="stop-color:#FFFFFF"/>
				</linearGradient>
				<path display="inline" fill="url(#SVGID_57_)" d="M277.3,173.2c-4.6,1.1-10.1,0.6-12.6-0.4c3.8,2.7,8.6,4.1,13.8,3.8
					c4.2-0.2,8-1.4,11.2-3.6C285.2,173.9,280.9,174.3,277.3,173.2z"/>
				<linearGradient id="SVGID_58_" gradientUnits="userSpaceOnUse" x1="277.1222" y1="176.5919" x2="277.1222" y2="172.9895">
					<stop  offset="0" style="stop-color:#E3BAD7"/>
					<stop  offset="1" style="stop-color:#FFFFFF"/>
				</linearGradient>
				<path display="inline" fill="url(#SVGID_58_)" d="M277.3,173.3c-4.5,1.1-10,0.5-12.4-0.4c3.8,2.7,8.5,4,13.6,3.7
					c4.1-0.2,7.9-1.4,11-3.5C285.1,173.9,280.9,174.4,277.3,173.3z"/>
				<linearGradient id="SVGID_59_" gradientUnits="userSpaceOnUse" x1="277.1168" y1="176.5586" x2="277.1168" y2="173.0555">
					<stop  offset="0" style="stop-color:#DDAACE"/>
					<stop  offset="1" style="stop-color:#FFFFFF"/>
				</linearGradient>
				<path display="inline" fill="url(#SVGID_59_)" d="M277.3,173.4c-4.5,1.1-9.8,0.5-12.2-0.5c3.7,2.6,8.4,3.9,13.3,3.6
					c4-0.2,7.8-1.3,10.8-3.4C285,174,280.8,174.5,277.3,173.4z"/>
				<linearGradient id="SVGID_60_" gradientUnits="userSpaceOnUse" x1="277.1113" y1="176.5254" x2="277.1113" y2="173.1214">
					<stop  offset="0" style="stop-color:#D89BC4"/>
					<stop  offset="1" style="stop-color:#FFFFFF"/>
				</linearGradient>
				<path display="inline" fill="url(#SVGID_60_)" d="M277.3,173.5c-4.4,1.1-9.7,0.4-12-0.5c3.7,2.6,8.3,3.8,13.1,3.5
					c4-0.2,7.6-1.2,10.7-3.3C284.9,174,280.7,174.6,277.3,173.5z"/>
				<linearGradient id="SVGID_61_" gradientUnits="userSpaceOnUse" x1="277.1059" y1="176.4922" x2="277.1059" y2="173.1873">
					<stop  offset="0" style="stop-color:#D38CBC"/>
					<stop  offset="1" style="stop-color:#FFFFFF"/>
				</linearGradient>
				<path display="inline" fill="url(#SVGID_61_)" d="M277.2,173.7c-4.3,1.1-9.5,0.3-11.9-0.6c3.6,2.5,8.2,3.7,12.9,3.4
					c3.9-0.2,7.5-1.2,10.5-3.2C284.7,174.1,280.7,174.7,277.2,173.7z"/>
				<linearGradient id="SVGID_62_" gradientUnits="userSpaceOnUse" x1="277.1004" y1="176.4591" x2="277.1004" y2="173.2532">
					<stop  offset="0" style="stop-color:#CE7EB4"/>
					<stop  offset="1" style="stop-color:#FFFFFF"/>
				</linearGradient>
				<path display="inline" fill="url(#SVGID_62_)" d="M277.2,173.8c-4.3,1.1-9.4,0.3-11.7-0.6c3.5,2.5,8,3.5,12.7,3.3
					c3.8-0.2,7.4-1.1,10.3-3.1C284.6,174.1,280.6,174.8,277.2,173.8z"/>
				<linearGradient id="SVGID_63_" gradientUnits="userSpaceOnUse" x1="277.095" y1="176.4261" x2="277.095" y2="173.3191">
					<stop  offset="0" style="stop-color:#C96FAC"/>
					<stop  offset="1" style="stop-color:#FFFFFF"/>
				</linearGradient>
				<path display="inline" fill="url(#SVGID_63_)" d="M277.2,173.9c-4.2,1-9.2,0.2-11.5-0.6c3.5,2.5,7.9,3.4,12.5,3.2
					c3.8-0.2,7.3-1,10.1-3C284.5,174.2,280.6,174.9,277.2,173.9z"/>
				<linearGradient id="SVGID_64_" gradientUnits="userSpaceOnUse" x1="277.0895" y1="176.3932" x2="277.0895" y2="173.3851">
					<stop  offset="0" style="stop-color:#C55FA4"/>
					<stop  offset="1" style="stop-color:#FFFFFF"/>
				</linearGradient>
				<path display="inline" fill="url(#SVGID_64_)" d="M277.2,174c-4.1,1-9.1,0.2-11.3-0.7c3.4,2.4,7.8,3.3,12.3,3.1
					c3.7-0.2,7.1-1,10-2.9C284.4,174.2,280.5,175,277.2,174z"/>
				<linearGradient id="SVGID_65_" gradientUnits="userSpaceOnUse" x1="277.0841" y1="176.3603" x2="277.0841" y2="173.451">
					<stop  offset="0" style="stop-color:#C14E9C"/>
					<stop  offset="1" style="stop-color:#FFFFFF"/>
				</linearGradient>
				<path display="inline" fill="url(#SVGID_65_)" d="M277.2,174.1c-4,1-8.9,0.1-11.1-0.7c3.4,2.4,7.7,3.2,12.1,3
					c3.6-0.2,7-0.9,9.8-2.8C284.2,174.3,280.4,175.1,277.2,174.1z"/>
			</g>
		</g>
	</g>
</g>
<g id="Layer_2_copy">
	<g display="none">
		<path display="inline" fill="#DB1959" d="M65.8,14.3c2.8,0,4.9,2.2,4.9,5c0,2.6-2.2,4.9-4.9,4.9c-2.7,0-4.9-2.2-4.9-4.9
			C60.9,16.5,63.1,14.3,65.8,14.3z M61.8,58.4V28.9h8v29.5H61.8z"/>
		<path display="inline" fill="#DB1959" d="M79.8,58.1c0.5,3.2,3.1,5.6,6.9,5.6c5,0,7.9-2.5,7.9-8.2v-2.2c-1.2,1.9-4,3.8-8.2,3.8
			c-7.9,0-13.7-6.1-13.7-14.3c0-7.8,5.6-14.4,13.7-14.4c4.7,0,7.4,2,8.4,4v-3.5h7.7v26.3c0,8.1-4.4,15.5-15.5,15.5
			c-8.1,0-13.5-5-14.3-10.7L79.8,58.1z M94.7,42.8c0-4.6-3.1-7.4-7-7.4c-4,0-7.1,2.9-7.1,7.4c0,4.6,2.9,7.5,7.1,7.5
			C91.8,50.3,94.7,47.3,94.7,42.8z"/>
		<path display="inline" fill="#DB1959" d="M112,58.1c0.5,3.2,3.1,5.6,6.9,5.6c5,0,7.9-2.5,7.9-8.2v-2.2c-1.2,1.9-4,3.8-8.2,3.8
			c-7.9,0-13.7-6.1-13.7-14.3c0-7.8,5.6-14.4,13.7-14.4c4.7,0,7.4,2,8.4,4v-3.5h7.7v26.3c0,8.1-4.4,15.5-15.5,15.5
			c-8.1,0-13.5-5-14.3-10.7L112,58.1z M126.9,42.8c0-4.6-3.1-7.4-7-7.4c-4,0-7.1,2.9-7.1,7.4c0,4.6,2.9,7.5,7.1,7.5
			C124,50.3,126.9,47.3,126.9,42.8z"/>
		<path display="inline" fill="#DB1959" d="M141.8,70.1l7-15.4l-12.5-25.8h8.9l7.9,17.3l7.3-17.3h8.5l-18.5,41.2H141.8z"/>
		<path display="inline" fill="#DB1959" d="M181.3,42.4v16h-8.3V15.9H189c8.4,0,14,5.6,14,13.3c0,7.7-5.6,13.3-14,13.3H181.3z
			 M187.9,35.3c4.1,0,6.7-2.4,6.7-6.1c0-3.8-2.5-6.1-6.7-6.1h-6.5v12.2H187.9z"/>
		<path display="inline" fill="#DB1959" d="M225.1,15c11.6,0,21.9,8.5,21.9,22.2c0,13.7-10.3,22.1-21.9,22.1
			c-11.5,0-21.8-8.5-21.8-22.1C203.3,23.5,213.6,15,225.1,15z M225.1,51.3c6.6,0,13.3-4.6,13.3-14.2S231.7,23,225.1,23
			c-6.5,0-13.3,4.6-13.3,14.2S218.6,51.3,225.1,51.3z"/>
		<path display="inline" fill="#DB1959" d="M257.7,42.4v16h-8.3V15.9h15.9c8.4,0,14,5.6,14,13.3c0,7.7-5.6,13.3-14,13.3H257.7z
			 M264.3,35.3c4.1,0,6.7-2.4,6.7-6.1c0-3.8-2.5-6.1-6.7-6.1h-6.5v12.2H264.3z"/>
	</g>
	<path fill="#DB1959" d="M54.5,39.5c-0.2-0.1-4-0.4-4.2-0.5c0-4.7-0.6-4.5-3.4-1.3c-1.4,0-2.5,0.5-2.5,1.6c0,0.6,0,1.7,0.1,3.1
		c-4.1,6.8-25.7,8-28.7,5.4C12.5,45,5.2,30.3,5.2,30.3c0,7-0.7,11.4-3.4,14.7c-2.8,3.4-2.3,6.6,1.3,4.9c2.1-1,5.2,1.6,5.2,1.6
		c2,2-1.8,10.2-3,15.8c-0.9,4.4,0.8,13,4.5,13s5.8-2.8,6.7-12.5s9.5-9,9.5-9c5.3,0,7.8,2,9.3,6.8s2.2,5.1,4.8,5.5
		c5.2,0.8,7-5.2,7.5-11.5c0.2-2.1,0.8-4.4,1.5-6.6c0.1-0.2,2.7-7,5.6-5.2c2.9,1.7,3.2,0.4,3.8-0.4C59,46.5,57.4,41,54.5,39.5z"/>
	<g>
		<path fill="#DB1959" d="M47.5,52.2c-4.7,4-8.8,5.7-16.8,5.7c-14.3,0-25.5-10.5-25.5-27.7C5.2,13.1,16.9,0,31.3,0
			c14,0,20.8,11.7,23.4,19.9L42.8,23c-1.3-4.7-4.2-9.8-11.4-9.8c-6.1-0.1-14.4,4.4-14.4,17c0,10.8,5.5,15.3,14.5,15.3
			c7,0,9.6-3.6,10.3-7.3l-10.8,1v-10h24.5c0,0,0,5.7-1.6,11.8C52.8,45.1,50.8,49.5,47.5,52.2z"/>
	</g>
</g>
<g id="Layer_1">
</g>
<g id="Layer_3">
</g>
</svg>
